<svg width="330" height="330" fill="none" xmlns="http://www.w3.org/2000/svg"><g clip-path="url(#clip0)"><path d="M315 150H51.213l49.393-49.394c5.858-5.857 5.858-15.355 0-21.213-5.857-5.857-15.355-5.857-21.213 0l-75 75c-5.858 5.857-5.858 15.355 0 21.213l75 75A14.956 14.956 0 0090 255a14.95 14.95 0 0010.606-4.394c5.858-5.857 5.858-15.355 0-21.213L51.213 180H315c8.284 0 15-6.716 15-15 0-8.284-6.716-15-15-15z" fill="#fff"/></g><defs><clipPath id="clip0"><path fill="#fff" d="M0 0h330v330H0z"/></clipPath></defs></svg>