<svg width="60" height="60" fill="none" xmlns="http://www.w3.org/2000/svg"><path d="M59.493 14.677L30.507.118A1.133 1.133 0 0030 0c-.178 0-.353.04-.507.118L.507 14.677A.959.959 0 00.136 15 .796.796 0 000 15.44V44.56c0 .155.047.307.136.441a.959.959 0 00.371.323l28.986 14.559c.154.077.329.118.507.118s.353-.04.507-.118l28.986-14.56a.96.96 0 00.371-.322.796.796 0 00.136-.441V15.44a.797.797 0 00-.136-.441.96.96 0 00-.371-.323zM30 1.9l12.177 6.117-26.954 13.539L3.046 15.44 30 1.901zM28.985 57.59L2.03 44.05V16.968l26.956 13.54v27.081zM30 28.98l-12.748-6.403L44.206 9.037l12.748 6.403L30 28.98zm27.971 15.07L31.015 57.59V30.508l26.956-13.54v27.081z" fill="#007BFF"/></svg>