<svg width="60" height="60" fill="none" xmlns="http://www.w3.org/2000/svg"><g clip-path="url(#clip0)" fill="#007BFF"><path d="M59.866 41.225a3.975 3.975 0 00-3.243-2.879v-22.8h1.986a.993.993 0 00.994-.993V4.62a.993.993 0 00-.994-.993H14.901a.993.993 0 00-.994.993v9.934c0 .549.445.993.994.993h1.986v19.868h-.993c-2.465-.006-4.88.701-6.954 2.035v-5.015a.993.993 0 00-.993-.993H.993a.993.993 0 00-.993.993v22.848c0 .548.445.993.993.993h6.954a.993.993 0 00.993-.993v-5.015a12.805 12.805 0 006.954 2.034h16.311c1.13-.001 2.255-.15 3.347-.44l21.508-5.762a3.989 3.989 0 002.806-4.874zM15.894 5.613h41.722v7.947H15.894V5.613zm2.98 9.933h35.762v22.97l-11.53 3.093a3.993 3.993 0 00-2.627-2.307l-13.385-3.59a9.026 9.026 0 00-2.309-.298h-5.91V15.547zM6.954 54.288H1.987v-20.86h4.967v20.86zm49.59-10.109L35.04 49.941c-.925.247-1.877.372-2.835.374h-16.31a10.853 10.853 0 01-6.557-2.186l-.398-.298v-7.947l.398-.298a10.846 10.846 0 016.556-2.185h8.891c.607 0 1.212.078 1.799.233l13.38 3.587c.791.218 1.37.896 1.46 1.71a.98.98 0 00.04.121.964.964 0 00-.026.13 1.987 1.987 0 01-2.498 1.882l-8.444-2.265a.994.994 0 10-.515 1.919l8.444 2.265c.337.089.685.133 1.034.133a3.966 3.966 0 003.823-2.919c.056-.199.093-.403.113-.608l12.11-3.248c.086-.022.18-.044.268-.059a1.987 1.987 0 012.24 1.976c.002.9-.6 1.687-1.469 1.921z"/><path d="M31.788 19.52h9.934a.993.993 0 000-1.987h-9.934a.993.993 0 100 1.987z"/></g><defs><clipPath id="clip0"><path fill="#fff" d="M0 0h60v60H0z"/></clipPath></defs></svg>