<svg width="60" height="60" fill="none" xmlns="http://www.w3.org/2000/svg"><g clip-path="url(#clip0)" fill="#007BFF"><path d="M60 17.974v-8.29c0-2.755-2.154-4.94-4.801-4.94H4.8C2.154 4.744 0 6.929 0 9.684v40.631c0 2.757 2.154 4.942 4.801 4.942h50.398c2.647 0 4.801-2.185 4.801-4.942V17.994v-.01-.01zM4.801 6.282h50.398c1.798 0 3.263 1.495 3.263 3.403v7.495H1.538V9.685c0-1.908 1.464-3.403 3.263-3.403zm50.398 47.436H4.8c-1.799 0-3.263-1.495-3.263-3.403V18.718h56.924v31.597c0 1.908-1.465 3.403-3.264 3.403z"/><path d="M15.553 15.388c1.906 0 3.457-1.61 3.457-3.589 0-1.979-1.552-3.589-3.457-3.589-1.906 0-3.458 1.61-3.458 3.59 0 1.979 1.551 3.588 3.458 3.588zm0-5.64c1.058 0 1.918.92 1.918 2.051 0 1.131-.86 2.05-1.918 2.05-1.058 0-1.92-.919-1.92-2.05 0-1.13.862-2.05 1.92-2.05zM24.288 15.388c1.907 0 3.457-1.61 3.457-3.589 0-1.979-1.55-3.589-3.457-3.589-1.906 0-3.457 1.61-3.457 3.59 0 1.979 1.55 3.588 3.457 3.588zm0-5.64c1.058 0 1.919.92 1.919 2.051 0 1.131-.86 2.05-1.919 2.05-1.058 0-1.919-.919-1.919-2.05 0-1.13.862-2.05 1.92-2.05zM6.817 15.388c1.906 0 3.457-1.61 3.457-3.589 0-1.979-1.551-3.589-3.457-3.589S3.36 9.82 3.36 11.8c0 1.979 1.55 3.588 3.457 3.588zm0-5.64c1.058 0 1.919.92 1.919 2.051 0 1.131-.861 2.05-1.92 2.05-1.057 0-1.918-.919-1.918-2.05 0-1.13.861-2.05 1.919-2.05zM27.65 31.23a.77.77 0 00-1.077-.15l-6.076 4.595a.77.77 0 000 1.227l6.076 4.594a.77.77 0 10.928-1.227l-5.265-3.98 5.265-3.981a.77.77 0 00.15-1.078zM32.35 31.23a.77.77 0 00.15 1.077l5.264 3.98-5.265 3.982a.77.77 0 00.92 1.234l.008-.007 6.076-4.594a.77.77 0 000-1.227l-6.076-4.595a.77.77 0 00-1.078.15zM31.152 28.713a.77.77 0 00-.876.645l-2.074 13.704a.77.77 0 101.521.231l2.075-13.704a.77.77 0 00-.645-.876h-.001z"/><path d="M30 22.128c-7.817 0-14.154 6.337-14.154 14.154S22.183 50.436 30 50.436 44.154 44.1 44.154 36.282C44.145 28.47 37.814 22.137 30 22.128zm0 26.77c-6.967 0-12.615-5.648-12.615-12.616 0-6.967 5.648-12.615 12.615-12.615 6.967 0 12.615 5.648 12.615 12.615-.007 6.964-5.65 12.608-12.615 12.616z"/></g><defs><clipPath id="clip0"><path fill="#fff" d="M0 0h60v60H0z"/></clipPath></defs></svg>