<svg width="60" height="60" fill="none" xmlns="http://www.w3.org/2000/svg"><g clip-path="url(#clip0)" fill="#007BFF"><path d="M32.786 3.94L28.97.21a.732.732 0 10-1.024 1.049l2.549 2.5-.817.012c-7.012.085-13.573 2.89-18.463 7.902-4.89 5-7.537 11.622-7.463 18.634a26.23 26.23 0 004.268 14.06 26.326 26.326 0 0010.78 9.39.711.711 0 00.317.073.74.74 0 00.659-.414.73.73 0 00-.342-.988c-8.658-4.085-14.11-12.573-14.219-22.134-.073-6.621 2.427-12.865 7.06-17.609 4.623-4.731 10.818-7.378 17.44-7.463l.816-.012-2.5 2.548a.732.732 0 00.013 1.037c.146.134.329.207.512.207a.729.729 0 00.524-.22l3.72-3.804a.732.732 0 00-.013-1.037zM51.981 15.623a26.591 26.591 0 00-10.805-9.365.736.736 0 00-.975.353.736.736 0 00.354.976c8.658 4.085 14.109 12.573 14.219 22.133.158 13.659-10.83 24.902-24.5 25.06l-.817.013 2.5-2.549a.732.732 0 10-1.049-1.024l-3.719 3.805a.732.732 0 00.012 1.036l3.817 3.732c.147.134.33.207.512.207a.732.732 0 00.512-1.256l-2.548-2.5.817-.012c7.012-.085 13.573-2.89 18.463-7.902 4.902-5.012 7.548-11.634 7.475-18.646a26.23 26.23 0 00-4.268-14.06z"/></g><defs><clipPath id="clip0"><path fill="#fff" d="M0 0h60v60H0z"/></clipPath></defs></svg>