<svg width="60" height="60" fill="none" xmlns="http://www.w3.org/2000/svg"><path d="M30.795 37.173a.947.947 0 00-1.262-.45 15.08 15.08 0 01-2.396.896.947.947 0 00-.674.727l-1.002 5.01a1.065 1.065 0 01-1.041.855h-2.734c-.505 0-.943-.36-1.042-.854l-1.002-5.011a.947.947 0 00-.674-.727 15.051 15.051 0 01-3.327-1.378.947.947 0 00-.99.037l-4.252 2.835c-.42.28-.984.224-1.34-.133l-1.934-1.933a1.065 1.065 0 01-.133-1.34l2.835-4.253a.947.947 0 00.037-.99 15.048 15.048 0 01-1.378-3.328.947.947 0 00-.727-.673l-5.01-1.002a1.065 1.065 0 01-.855-1.042v-2.734c0-.504.36-.942.854-1.041L7.76 19.64c.35-.07.63-.33.727-.673.324-1.16.788-2.28 1.378-3.327a.948.948 0 00-.037-.99l-2.835-4.252c-.28-.42-.224-.984.133-1.34l1.933-1.934c.357-.357.921-.412 1.34-.133l4.253 2.835c.297.198.68.212.99.037a15.052 15.052 0 013.328-1.378.947.947 0 00.673-.727l1.002-5.01a1.065 1.065 0 011.042-.855h2.734c.504 0 .942.36 1.041.854l1.003 5.011c.07.35.33.63.673.727 1.16.324 2.28.788 3.327 1.378.311.175.694.16.99-.037l4.253-2.835c.42-.28.983-.224 1.34.133l1.933 1.933c.357.357.413.92.133 1.34l-2.835 4.253a.947.947 0 00-.037.99 15.056 15.056 0 011.379 3.327.947.947 0 00.726.674l5.011 1.002c.495.099.854.537.854 1.042v2.733c0 .505-.359.943-.854 1.042l-5.01 1.002c-.35.07-.631.33-.727.674a15.07 15.07 0 01-.924 2.453.947.947 0 101.709.82 17 17 0 00.872-2.2l4.452-.89a2.965 2.965 0 002.376-2.9v-2.735c0-1.404-1-2.623-2.377-2.899l-4.452-.89a16.956 16.956 0 00-1.105-2.669l2.518-3.778a2.965 2.965 0 00-.37-3.73l-1.932-1.934a2.965 2.965 0 00-3.731-.37l-3.778 2.52a16.962 16.962 0 00-2.669-1.106l-.89-4.452A2.965 2.965 0 0024.419 0h-2.733c-1.405 0-2.624 1-2.9 2.377l-.89 4.452c-.92.292-1.813.662-2.669 1.106l-3.777-2.52a2.965 2.965 0 00-3.731.37L5.785 7.72a2.965 2.965 0 00-.37 3.73l2.52 3.779a16.959 16.959 0 00-1.106 2.668l-4.452.89A2.965 2.965 0 000 21.686v2.734c0 1.404 1 2.624 2.377 2.9l4.452.89c.292.919.662 1.812 1.106 2.668l-2.52 3.778a2.965 2.965 0 00.37 3.731L7.72 40.32a2.965 2.965 0 003.73.37l3.779-2.519c.855.443 1.749.813 2.668 1.106l.89 4.452a2.965 2.965 0 002.9 2.376h2.734c1.404 0 2.624-1 2.9-2.377l.89-4.452c.73-.232 1.446-.514 2.136-.841a.948.948 0 00.45-1.262z" fill="#007BFF"/><path d="M31.259 28.316a.947.947 0 001.275-.41 10.682 10.682 0 001.168-4.854c0-5.871-4.777-10.649-10.65-10.649a10.591 10.591 0 00-7.433 3.024.947.947 0 001.323 1.357 8.707 8.707 0 016.11-2.486c4.828 0 8.755 3.927 8.755 8.755a8.658 8.658 0 01-.96 3.988.947.947 0 00.412 1.275zM14.185 19a.947.947 0 00-1.204.587 10.633 10.633 0 00-.577 3.466c0 5.872 4.777 10.649 10.649 10.649 2.258 0 4.416-.698 6.24-2.019a.948.948 0 00-1.111-1.535 8.69 8.69 0 01-5.13 1.659c-4.826 0-8.754-3.927-8.754-8.755 0-.976.16-1.935.474-2.85A.947.947 0 0014.185 19zM58.177 41.404l-2.74-.548a11.457 11.457 0 00-.6-1.45l1.55-2.324c.597-.897.478-2.1-.284-2.862l-1.27-1.27a2.274 2.274 0 00-2.862-.284l-2.325 1.55a11.464 11.464 0 00-1.45-.6l-.547-2.74a2.274 2.274 0 00-2.224-1.823h-1.797a2.274 2.274 0 00-2.224 1.823l-.548 2.74c-.496.166-.981.367-1.45.6l-2.325-1.55a2.274 2.274 0 00-2.861.284l-1.27 1.27a2.274 2.274 0 00-.284 2.862l1.55 2.324c-.32.645-.58 1.32-.774 2.013a.948.948 0 001.825.51 9.556 9.556 0 01.876-2.114.948.948 0 00-.037-.99l-1.863-2.794a.374.374 0 01.046-.471l1.27-1.27a.375.375 0 01.472-.047l2.794 1.863c.297.198.68.212.99.037a9.566 9.566 0 012.115-.876.947.947 0 00.673-.727l.659-3.293a.374.374 0 01.366-.3h1.797c.177 0 .33.127.366.3l.658 3.293c.07.35.33.63.674.727a9.555 9.555 0 012.114.876c.31.175.694.16.99-.037l2.795-1.863a.374.374 0 01.47.047l1.271 1.27a.375.375 0 01.047.47l-1.863 2.795a.947.947 0 00-.037.99c.375.667.67 1.378.876 2.115a.947.947 0 00.726.674l3.293.658c.174.035.3.189.3.366v1.797a.374.374 0 01-.3.366l-3.293.658c-.35.07-.63.33-.726.674a9.56 9.56 0 01-.877 2.114.948.948 0 00.038.99l1.862 2.795a.374.374 0 01-.046.471l-1.27 1.27a.374.374 0 01-.471.047l-2.795-1.863a.948.948 0 00-.99-.037 9.566 9.566 0 01-2.115.876.947.947 0 00-.673.727l-.659 3.292a.374.374 0 01-.366.3h-1.796a.374.374 0 01-.366-.3l-.659-3.293a.948.948 0 00-.673-.726 9.558 9.558 0 01-2.115-.876.948.948 0 00-.99.037L36.03 54.81a.374.374 0 01-.471-.047l-1.27-1.27a.374.374 0 01-.047-.471l1.862-2.794a.947.947 0 00.038-.991 9.566 9.566 0 01-.877-2.114.947.947 0 00-.726-.674l-3.293-.658a.374.374 0 01-.3-.366v-1.797c0-.177.127-.331.3-.366l.202-.04a.947.947 0 10-.372-1.858l-.202.04a2.274 2.274 0 00-1.822 2.224v1.797c0 1.077.766 2.012 1.823 2.224l2.74.547c.166.497.367.982.6 1.45l-1.55 2.325c-.598.897-.478 2.1.283 2.862l1.27 1.27c.762.762 1.966.881 2.862.283l2.325-1.55c.469.233.954.434 1.45.601l.548 2.74A2.275 2.275 0 0043.628 60h1.797a2.274 2.274 0 002.224-1.823l.547-2.74c.497-.167.982-.368 1.45-.6l2.325 1.55c.897.597 2.1.478 2.862-.284l1.27-1.27c.762-.762.881-1.966.283-2.862l-1.55-2.325c.234-.468.435-.953.601-1.45l2.74-.548A2.274 2.274 0 0060 45.424v-1.796a2.274 2.274 0 00-1.823-2.224z" fill="#007BFF"/><path d="M44.526 41.116c1.88 0 3.41 1.53 3.41 3.41a.947.947 0 001.895 0 5.311 5.311 0 00-5.305-5.305 5.311 5.311 0 00-5.305 5.306 5.311 5.311 0 005.305 5.305 5.256 5.256 0 003.241-1.105.948.948 0 00-1.158-1.5 3.378 3.378 0 01-2.083.71c-1.88 0-3.41-1.53-3.41-3.41 0-1.881 1.53-3.411 3.41-3.411zM28.825 23.053a5.778 5.778 0 00-5.772-5.772 5.778 5.778 0 00-5.772 5.772 5.778 5.778 0 005.772 5.771 5.778 5.778 0 005.771-5.771zm-9.65 0a3.882 3.882 0 013.878-3.878 3.882 3.882 0 013.877 3.878 3.882 3.882 0 01-3.877 3.877 3.882 3.882 0 01-3.878-3.877z" fill="#007BFF"/></svg>