<svg width="330" height="330" viewBox="0 0 330 330" fill="none" xmlns="http://www.w3.org/2000/svg">
<g clip-path="url(#clip0)">
<path d="M315 150H51.213L100.606 100.606C106.464 94.749 106.464 85.251 100.606 79.393C94.749 73.536 85.251 73.536 79.393 79.393L4.39301 154.393C-1.46499 160.25 -1.46499 169.748 4.39301 175.606L79.393 250.606C82.323 253.535 86.161 255 90 255C93.839 255 97.678 253.535 100.606 250.606C106.464 244.749 106.464 235.251 100.606 229.393L51.213 180H315C323.284 180 330 173.284 330 165C330 156.716 323.284 150 315 150Z" fill="white"/>
</g>
<defs>
<clipPath id="clip0">
<rect width="330" height="330" fill="white"/>
</clipPath>
</defs>
</svg>
