<svg width="60" height="60" viewBox="0 0 60 60" fill="none" xmlns="http://www.w3.org/2000/svg">
<path d="M59.4928 14.6769L30.5072 0.118244C30.353 0.040781 30.1781 0 30 0C29.8219 0 29.647 0.040781 29.4928 0.118244L0.507246 14.6769C0.353028 14.7543 0.224963 14.8657 0.135923 14.9999C0.0468825 15.1341 4.52384e-06 15.2863 0 15.4412V44.5589C4.52384e-06 44.7138 0.0468825 44.866 0.135923 45.0002C0.224963 45.1344 0.353028 45.2458 0.507246 45.3232L29.4928 59.8819C29.647 59.9593 29.8219 60 30 60C30.1781 60 30.353 59.9593 30.5072 59.8819L59.4928 45.3229C59.647 45.2454 59.775 45.134 59.8641 44.9998C59.9531 44.8657 60 44.7135 60 44.5585V15.4412C60 15.2863 59.9531 15.1341 59.8641 14.9999C59.775 14.8657 59.647 14.7543 59.4928 14.6769V14.6769ZM30 1.90144L42.1774 8.01788L15.2229 21.5566L3.04551 15.4402L30 1.90144ZM28.9855 57.5892L2.02899 44.0494V16.9678L28.9855 30.5077V57.5892ZM30 28.9788L17.252 22.5756L44.2065 9.03702L56.9545 15.4402L30 28.9788ZM57.971 44.0494L31.0145 57.5892V30.5077L57.971 16.9678V44.0494Z" fill="#007BFF"/>
</svg>
