<svg width="60" height="60" viewBox="0 0 60 60" fill="none" xmlns="http://www.w3.org/2000/svg">
<g clip-path="url(#clip0)">
<path d="M59.8661 41.225C59.4499 39.7082 58.1781 38.5795 56.6226 38.3462V15.5465H58.6093C59.1579 15.5465 59.6027 15.1017 59.6027 14.5531V4.61936C59.6027 4.07028 59.1579 3.62598 58.6093 3.62598H14.9007C14.3521 3.62598 13.9073 4.07028 13.9073 4.61936V14.5531C13.9073 15.1017 14.3521 15.5465 14.9007 15.5465H16.8874V35.4141H15.8941C13.4286 35.4083 11.0135 36.115 8.94041 37.4494V32.434C8.94041 31.8849 8.49562 31.4406 7.94703 31.4406H0.993379C0.444789 31.4406 0 31.8849 0 32.434V55.2817C0 55.8303 0.444789 56.2751 0.993379 56.2751H7.94703C8.49562 56.2751 8.94041 55.8303 8.94041 55.2817V50.2668C11.014 51.6002 13.4286 52.3069 15.8941 52.3015H32.2053C33.3354 52.2996 34.4603 52.1512 35.5521 51.8601L57.0596 46.0987C59.1759 45.522 60.4297 43.3451 59.8661 41.225ZM15.8941 5.61273H57.616V13.5598H15.8941V5.61273ZM18.8742 15.5465H54.6358V38.5169L43.1067 41.6086C42.6319 40.4765 41.6632 39.6263 40.4792 39.3018L27.0943 35.7119C26.3405 35.5135 25.5645 35.4131 24.785 35.4141H18.8742V15.5465ZM6.95365 54.2883H1.98676V33.4273H6.95365V54.2883ZM56.544 44.1794L35.0404 49.9408C34.1154 50.1877 33.1627 50.3133 32.2053 50.3148H15.8941C13.529 50.3201 11.2264 49.5528 9.33766 48.1292L8.94041 47.8313V39.8843L9.33766 39.586C11.2264 38.1624 13.529 37.3946 15.8941 37.4009H24.785C25.3918 37.4004 25.9966 37.4789 26.584 37.6342L39.9646 41.2211C40.7552 41.4389 41.3339 42.1165 41.4241 42.9319C41.4348 42.9726 41.4479 43.0129 41.4639 43.0522C41.4522 43.0948 41.4435 43.138 41.4377 43.1821C41.4386 43.3437 41.4168 43.5047 41.3722 43.6599C41.1384 44.5257 40.3541 45.1277 39.4572 45.1291C39.2821 45.1306 39.1085 45.1083 38.9397 45.0636L30.496 42.7994C30.1496 42.6966 29.7747 42.7897 29.5166 43.0429C29.2591 43.2961 29.1587 43.6691 29.2552 44.0174C29.3517 44.3652 29.6297 44.6339 29.9813 44.7178L38.425 46.983C38.7621 47.0717 39.1099 47.1164 39.4592 47.1159C41.2451 47.1149 42.8104 45.9202 43.2823 44.1973C43.3376 43.998 43.375 43.7943 43.3948 43.5886L55.505 40.3412C55.5914 40.3194 55.685 40.2971 55.7733 40.2825C56.7623 40.155 57.6921 40.7802 57.9477 41.7435C57.9924 41.9113 58.0147 42.0845 58.0132 42.2581C58.0147 43.1574 57.4122 43.9451 56.544 44.1794Z" fill="#007BFF"/>
<path d="M31.7881 19.52H41.7218C42.2704 19.52 42.7152 19.0752 42.7152 18.5266C42.7152 17.9775 42.2704 17.5332 41.7218 17.5332H31.7881C31.2395 17.5332 30.7947 17.9775 30.7947 18.5266C30.7947 19.0752 31.2395 19.52 31.7881 19.52Z" fill="#007BFF"/>
</g>
<defs>
<clipPath id="clip0">
<rect width="60" height="60" fill="white"/>
</clipPath>
</defs>
</svg>
