<svg width="60" height="60" viewBox="0 0 60 60" fill="none" xmlns="http://www.w3.org/2000/svg">
<g clip-path="url(#clip0)">
<path d="M60 17.9744V9.68493C60 6.92852 57.8461 4.74365 55.1985 4.74365H4.80101C2.15383 4.74365 -1.23978e-05 6.92852 -1.23978e-05 9.68493V50.3152C-1.23978e-05 53.0716 2.15383 55.2565 4.80101 55.2565H55.1985C57.8461 55.2565 60 53.0716 60 50.3152V17.9937C60 17.9903 60 17.9871 60 17.9838C60 17.9804 60 17.9772 60 17.9744ZM4.80101 6.28211H55.1985C56.9974 6.28211 58.4615 7.77699 58.4615 9.68493V17.1796H1.53845V9.68493C1.53845 7.77699 3.00204 6.28211 4.80101 6.28211ZM55.1985 53.718H4.80101C3.00204 53.718 1.53845 52.2231 1.53845 50.3152V18.718H58.4615V50.3152C58.4615 52.2231 56.9974 53.718 55.1985 53.718Z" fill="#007BFF"/>
<path d="M15.5526 15.3884C17.4589 15.3884 19.0098 13.7784 19.0098 11.7994C19.0098 9.82045 17.4585 8.21045 15.5526 8.21045C13.6467 8.21045 12.0955 9.82019 12.0955 11.7994C12.0955 13.7787 13.6462 15.3884 15.5526 15.3884ZM15.5526 9.74891C16.6106 9.74891 17.4713 10.6688 17.4713 11.7994C17.4713 12.9301 16.6106 13.8499 15.5526 13.8499C14.4947 13.8499 13.6339 12.9301 13.6339 11.7994C13.6339 10.6688 14.4947 9.74891 15.5526 9.74891Z" fill="#007BFF"/>
<path d="M24.2882 15.3884C26.1945 15.3884 27.7454 13.7784 27.7454 11.7994C27.7454 9.82045 26.1941 8.21045 24.2882 8.21045C22.3823 8.21045 20.831 9.82019 20.831 11.7994C20.831 13.7787 22.3819 15.3884 24.2882 15.3884ZM24.2882 9.74891C25.3462 9.74891 26.2069 10.6688 26.2069 11.7994C26.2069 12.9301 25.3462 13.8499 24.2882 13.8499C23.2303 13.8499 22.3695 12.9301 22.3695 11.7994C22.3695 10.6688 23.2308 9.74891 24.2882 9.74891Z" fill="#007BFF"/>
<path d="M6.81692 15.3884C8.7232 15.3884 10.2741 13.7784 10.2741 11.7994C10.2741 9.82045 8.72282 8.21045 6.81692 8.21045C4.91102 8.21045 3.35974 9.82019 3.35974 11.7994C3.35974 13.7787 4.91026 15.3884 6.81692 15.3884ZM6.81692 9.74891C7.87487 9.74891 8.73564 10.6688 8.73564 11.7994C8.73564 12.9301 7.87487 13.8499 6.81692 13.8499C5.75897 13.8499 4.8982 12.9301 4.8982 11.7994C4.8982 10.6688 5.75897 9.74891 6.81692 9.74891Z" fill="#007BFF"/>
<path d="M27.6506 31.2297C27.3943 30.8908 26.912 30.8238 26.573 31.08L20.4969 35.6745C20.158 35.9308 20.0911 36.4132 20.3474 36.7521C20.3901 36.8086 20.4405 36.8589 20.4969 36.9016L26.573 41.4962C26.9101 41.7548 27.3931 41.6912 27.6516 41.3541C27.9102 41.0171 27.8466 40.5341 27.5096 40.2756C27.5068 40.2734 27.5039 40.2712 27.5011 40.2691L22.2364 36.2881L27.501 32.3076C27.84 32.0514 27.9072 31.5691 27.651 31.2302C27.6509 31.23 27.6507 31.2298 27.6506 31.2297Z" fill="#007BFF"/>
<path d="M32.3495 31.2297C32.0937 31.5684 32.1606 32.0504 32.4991 32.3066L37.7639 36.2876L32.4991 40.2691C32.1585 40.523 32.0882 41.005 32.3421 41.3456C32.5959 41.6862 33.0779 41.7565 33.4185 41.5026C33.4213 41.5004 33.4241 41.4984 33.4269 41.4962L39.5031 36.9016C39.8419 36.6453 39.9089 36.1629 39.6526 35.824C39.6099 35.7675 39.5595 35.7172 39.5031 35.6745L33.4269 31.08C33.0882 30.8238 32.6058 30.8908 32.3495 31.2297Z" fill="#007BFF"/>
<path d="M31.152 28.7127C30.7321 28.6499 30.3406 28.9385 30.2764 29.3581L28.2024 43.0623C28.1387 43.4823 28.4275 43.8745 28.8476 43.9382C29.2676 44.0019 29.6598 43.7131 29.7235 43.293L31.7975 29.5887C31.8614 29.1687 31.5726 28.7765 31.1526 28.7127C31.1524 28.7127 31.1521 28.7127 31.152 28.7127Z" fill="#007BFF"/>
<path d="M30 22.1284C22.1831 22.1284 15.8462 28.4653 15.8462 36.2823C15.8462 44.0992 22.1831 50.4361 30 50.4361C37.817 50.4361 44.1539 44.0992 44.1539 36.2823C44.1453 28.4689 37.8134 22.137 30 22.1284ZM30 48.8977C23.0327 48.8977 17.3847 43.2496 17.3847 36.2823C17.3847 29.315 23.0327 23.6669 30 23.6669C36.9674 23.6669 42.6154 29.315 42.6154 36.2823C42.6077 43.2464 36.9642 48.89 30 48.8977Z" fill="#007BFF"/>
</g>
<defs>
<clipPath id="clip0">
<rect width="60" height="60" fill="white"/>
</clipPath>
</defs>
</svg>
