<svg width="60" height="60" viewBox="0 0 60 60" fill="none" xmlns="http://www.w3.org/2000/svg">
<g clip-path="url(#clip0)">
<path d="M32.7865 3.94047L28.9695 0.20886C28.6768 -0.0716201 28.2134 -0.0716201 27.9329 0.221055C27.6524 0.51373 27.6524 0.977133 27.9451 1.25761L30.4938 3.75755L29.6768 3.76974C22.6648 3.85511 16.104 6.65991 11.2138 11.672C6.32373 16.6718 3.67745 23.2936 3.75062 30.3056C3.8116 35.3299 5.28717 40.1834 8.0188 44.3662C10.6895 48.4393 14.4089 51.6831 18.799 53.7562C18.8966 53.805 19.0063 53.8294 19.1161 53.8294C19.3844 53.8294 19.6527 53.6709 19.7746 53.4148C19.9575 53.0367 19.799 52.5977 19.4331 52.427C10.7748 48.3417 5.32375 39.8542 5.214 30.2934C5.14083 23.6717 7.64077 17.4279 12.2748 12.6841C16.8966 7.95256 23.0916 5.30629 29.7134 5.22092L30.5304 5.20873L28.0305 7.75744C27.75 8.05012 27.75 8.51352 28.0427 8.794C28.189 8.92814 28.3719 9.00131 28.5549 9.00131C28.75 9.00131 28.9329 8.92814 29.0792 8.78181L32.7987 4.97703C33.0791 4.68435 33.0791 4.22095 32.7865 3.94047Z" fill="#007BFF"/>
<path d="M51.9811 15.6233C49.2982 11.5746 45.5666 8.33077 41.1765 6.25765C40.8107 6.08693 40.3716 6.24546 40.2009 6.6113C40.0302 6.97715 40.1887 7.41616 40.5546 7.58689C49.2129 11.6721 54.664 20.1597 54.7737 29.7204C54.9322 43.3786 43.9447 54.6222 30.2743 54.7808L29.4573 54.793L31.9572 52.2442C32.2377 51.9516 32.2377 51.4882 31.945 51.2077C31.6524 50.9272 31.189 50.9272 30.9085 51.2199L27.1891 55.0247C26.9086 55.3173 26.9086 55.7807 27.2012 56.0612L31.0182 59.7928C31.1646 59.927 31.3475 60.0001 31.5304 60.0001C31.7255 60.0001 31.9084 59.927 32.0548 59.7806C32.3353 59.488 32.3353 59.0246 32.0426 58.7441L29.4939 56.2441L30.3109 56.2319C37.3229 56.1466 43.8837 53.3418 48.7739 48.3297C53.6762 43.3176 56.3224 36.6959 56.2493 29.6839C56.1883 24.6596 54.7127 19.8061 51.9811 15.6233Z" fill="#007BFF"/>
</g>
<defs>
<clipPath id="clip0">
<rect width="60" height="60" fill="white"/>
</clipPath>
</defs>
</svg>
