<?xml version="1.0" ?><svg style="enable-background:new 0 0 24 24;" version="1.1" viewBox="0 0 24 24" xml:space="preserve" xmlns="http://www.w3.org/2000/svg" xmlns:xlink="http://www.w3.org/1999/xlink"><style type="text/css">
	.st0{display:none;}
</style><g class="st0" id="grid"/><g id="icon"><path d="M23.5,11.5c-0.276,0-0.5,0.224-0.5,0.5c0,6.065-4.935,11-11,11S1,18.065,1,12S5.935,1,12,1   c3.498,0,6.775,1.661,8.848,4.464l-9.566,9.566l-3.529-3.529c-0.195-0.195-0.512-0.195-0.707,0s-0.195,0.512,0,0.707l3.883,3.883   c0.195,0.195,0.512,0.195,0.707,0L21.854,5.872c0.17-0.17,0.195-0.438,0.059-0.636C19.672,1.958,15.966,0,12,0   C5.383,0,0,5.383,0,12s5.383,12,12,12s12-5.383,12-12C24,11.724,23.776,11.5,23.5,11.5z"/></g></svg>